<?xml version="1.0" encoding="utf-8"?>
<!-- Generator: Adobe Illustrator 28.1.0, SVG Export Plug-In . SVG Version: 6.00 Build 0)  -->
<svg version="1.1" id="Layer_1" xmlns="http://www.w3.org/2000/svg" xmlns:xlink="http://www.w3.org/1999/xlink" x="0px" y="0px"
	 viewBox="0 0 49.9 74" style="enable-background:new 0 0 49.9 74;" xml:space="preserve">
<style type="text/css">
	.st0{fill-rule:evenodd;clip-rule:evenodd;}
</style>
<path marker-start="none" marker-end="none" class="st0" d="M21.3,72.4l-0.7-0.7c-0.1-0.1-0.1-0.1-0.2-0.2l0,0L20,71.4
	c-1.5-0.2-4.6-0.4-7.6-1.7C1.1,64.6-1.7,55.1,0.9,46.9c1.6-5.1,3.7-8.2,5.1-12.1c0.9-2.4,1.5-4.6,2.2-7.3c0.1-0.5,0.3-1,0.4-1.5
	c-0.2,0-0.4,0-0.6,0.1c-0.4,0-0.8,0-1.1,0.1c-0.8,0-1.6,0-2.1,0c-0.3,0-0.5-0.2-0.5-0.5c0-0.3,0.2-0.5,0.5-0.5c0.6,0,1.4,0,2.1,0
	c0.4,0,0.8,0,1.1-0.1c0.3,0,0.6-0.1,0.9-0.1c0,0,0,0,0,0c0.1-0.3,0.1-0.6,0.2-0.9c-0.5-0.1-1.2-0.2-1.9-0.3
	c-0.4-0.1-0.9-0.1-1.3-0.2c-0.4-0.1-0.8-0.2-1.1-0.3c-0.3-0.1-0.4-0.4-0.3-0.6c0.1-0.3,0.4-0.4,0.6-0.3c0.2,0.1,0.6,0.2,0.9,0.2
	c0.4,0.1,0.8,0.2,1.3,0.2C8,22.9,8.7,23,9.3,23.1c0.2-0.9,0.3-1.8,0.5-2.8c0,0,0,0,0,0c-0.3-0.3-0.5-0.7-0.7-1
	c-0.2-0.3-0.6-1.2-0.5-1.7c0-0.1,0-0.2,0.1-0.3c0-0.1,0.1-0.1,0.1-0.2l0,0c0.3-0.2,0.7-0.3,1.1-0.4c0.1,0,0.3-0.1,0.4-0.1
	c0,0,0,0,0,0c0.4-3.6,0.6-6.6,0.8-7.7c0.2-1.6,0.4-3.7,0.9-5.4c0.3-1.4,0.9-2.9,2-3.2l0.4-0.1l0.2,0C15.6,0,16.9,1.8,17.7,3
	c0.7,1,1.4,2.2,1.7,3l0,0.1l0.1,0c2.8-0.7,8-0.7,11,0.1l0.2,0.1L30.9,6c0.4-0.6,1.1-1.9,1.9-3.1c1-1.4,2.5-3.3,3.9-2.8
	c1,0.4,1.6,2.1,2,3.8c0.4,1.9,0.8,4.3,1.3,6.5c0.4,1.6,0.9,4,1.1,6.1c0,0.1,0,0.1,0,0.2c0,0,0,0,0,0c0.4,0.1,0.9,0.2,1.1,0.4l0,0
	c0.1,0,0.1,0.1,0.1,0.2c0,0.1,0.1,0.2,0.1,0.3c0,0.3-0.1,0.8-0.3,1.2c0.9,0.7,1.9,1.6,2.3,2.1c3.4,3.9,4.1,7.9,3,12.3
	c-0.4,1.7-1.3,3.2-2.3,4.4l-0.8,0.8l0.7,1.6c0.7,1.9,1.2,3.7,1.6,5.6c0.3,1.2,0.7,3.2,0.7,6.5l0,1.4l0.9,1.6c2,4.1,1.8,8.4,0.6,11.8
	c-2.4,6.6-11.1,9.3-16.7,4.2l-0.9-0.9l-0.2,0.1c-0.5,0.1-1.2,0.3-1.7,0.5l-0.4,0.2l-0.2,0.8c-0.5,1-1.5,1.9-2.8,2.1
	C24.2,74.2,22.4,73.4,21.3,72.4z M28.2,70.7c0-0.1,0-0.1,0-0.2c0-0.1,0-0.1,0-0.2c0-0.2-0.1-0.5-0.3-1.1c-0.2-0.5-0.4-1.1-0.7-1.8
	c-0.6-1.3-1.3-2.5-1.7-3.1c-1.6-2.4-4.2-6.2-4.1-9.8c0-0.3,0.2-0.5,0.5-0.5s0.5,0.2,0.5,0.5c-0.1,3.2,2.2,6.7,3.9,9.2
	c0.4,0.6,1.1,1.9,1.7,3.2c0.3,0.6,0.6,1.3,0.8,1.9c0.1,0.4,0.2,0.7,0.3,1c0.5-0.2,1.2-0.4,1.7-0.5c-1.7-2.6-2.3-6-1.6-8.9
	c0.8-3.2,3.3-5.7,7.8-5.6c5,0.1,8.1,5.6,6.7,9.4c-1.2,3.1-3.6,3.7-5.4,3c-1.2-0.5-2.2-1.6-2.2-2.7l0-0.1L36,64.4c-0.6-0.5-1-1.3-1-2
	c0-0.7,0.2-1.6,1.2-1.8c0.9-0.2,1.6,0.1,1.9,0.8c0.2,0.7,0,1.5-0.6,2.2c-0.8,0.9-0.1,2.3,1.3,2.8c1.3,0.5,3.1,0.2,4.1-2.5
	c1.2-3.2-1.5-8-5.8-8c-4.1,0-6.2,2.1-6.9,4.9c-0.7,2.8,0.1,6.3,1.9,8.8c0,0,0.1,0.1,0.1,0.2c5,5.5,13.7,3.3,15.9-3.1
	c1.3-3.6,1.3-8.4-1.5-12.7c-0.1-0.1-0.1-0.2-0.1-0.3c0.1-4.1-0.4-6.5-0.7-7.8c-0.6-2.5-1.2-4.7-2.4-7.3c-0.1-0.2-0.1-0.4,0.1-0.6
	c1.3-1.2,2.6-3,3.1-5c0.9-4.1,0.4-7.7-2.8-11.4c-0.4-0.4-1.3-1.2-2.1-1.9c-0.8,1.3-2,2.4-3.4,3.1c0.7,1.2,1.2,2.3,1.3,3.4
	c0.2,1.3-0.1,2.6-0.8,4c-0.1,0.2-0.4,0.3-0.7,0.2C38,30.3,37.9,30,38,29.7c0.6-1.3,0.8-2.4,0.7-3.5c-0.1-1-0.5-2-1.2-3.1
	c-2,0.8-4.4,0.8-6.7-0.3c-0.8-0.4-2.2-1.2-3.2-2.2c-0.5-0.5-1-1.1-1.2-1.7c-0.1-0.2-0.1-0.3-0.1-0.5h-1.5c0,0.2-0.1,0.3-0.1,0.5
	c-0.2,0.6-0.7,1.2-1.2,1.7c-1,1-2.4,1.8-3.2,2.2c-3.6,1.7-7.3,0.7-9.6-1.6c-0.4,2.2-0.7,4.3-1.4,6.5c-0.8,2.7-1.4,4.9-2.3,7.4
	c-1.6,4.4-3.4,6.7-5.1,12C-0.6,55,1.9,63.9,12.7,68.9c2.4,1,4.6,1.3,6.3,1.4c-3.7-3.5-7.3-8.7-8.5-13.6c-0.1-0.3,0.1-0.5,0.4-0.6
	c0.3-0.1,0.5,0.1,0.6,0.4c1.3,5.2,5.4,10.7,9.4,14.1c0.1,0,0.2,0.1,0.2,0.2c0,0,0.1,0.1,0.1,0.1c0,0,0.1,0.1,0.1,0.1
	c0.1,0.1,0.1,0.1,0.2,0.2c1,1,2.7,2,4.6,1.7C27.2,72.8,28.1,71.6,28.2,70.7z M36.4,63.4l0.1-0.2c0.1-0.1,0.1-0.2,0.2-0.3
	c0.5-0.6,0.5-1,0.4-1.2c0-0.1-0.2-0.3-0.8-0.2c-0.3,0.1-0.5,0.3-0.4,0.8C36,62.7,36.2,63.1,36.4,63.4L36.4,63.4z M24.6,48
	c-1-0.8-2.1-2.1-2.6-3c0-0.1,0-0.1-0.1-0.2c0-0.3,0.1-1,0.2-1.6c0.2-0.7,0.4-1.5,0.6-2.4c0.4-1.6,0.9-3.2,1.1-3.7l0,0l0-0.4l0,0
	c-0.4-0.2-0.9-0.5-1.2-0.8c-0.5-0.5-1-1.2-1-2c0-0.1,0-0.3,0.1-0.3c0.7-0.7,2.1-0.9,3.4-0.9c1.3,0,2.7,0.2,3.4,0.8
	c0.1,0.1,0.2,0.2,0.2,0.3c0.1,1.2-0.6,2.1-1.4,2.7L27,36.5l0,0.1c0.1,0.2,0.2,0.4,0.4,0.8c0.3,0.7,0.7,1.5,1.1,2.3
	c0.4,0.8,0.8,1.7,1,2.6c0.3,0.8,0.4,1.6,0.3,2.2c-0.2,0.8-0.7,1.9-1.3,2.8C28,48,27.1,49,26.2,48.8C25.7,48.7,25.2,48.5,24.6,48z
	 M27.8,46.7c0.6-0.8,1-1.8,1.1-2.4c0.1-0.3,0-0.9-0.3-1.7c-0.2-0.8-0.6-1.6-1-2.4c-0.4-0.8-0.8-1.6-1.1-2.3
	c-0.2-0.5-0.6-1.2-0.6-1.5c0-0.2,0.1-0.5,0.3-0.5c0.7-0.2,1.4-0.9,1.5-1.7l0-0.1l-0.2-0.1c-0.5-0.2-1.4-0.3-2.3-0.3
	c-1.1,0-2,0.2-2.5,0.5l0,0.1c0.1,0.3,0.3,0.7,0.6,1c0.2,0.2,0.4,0.4,0.6,0.5c0.2,0.1,0.3,0.1,0.3,0.1l0,0l0.1,0
	c0.3,0,0.6,0.2,0.5,0.5l0,0.9c0,0,0,0.1,0,0.1c-0.1,0.5-0.6,2.1-1.1,3.8c-0.2,0.8-0.4,1.7-0.6,2.3c-0.2,0.7-0.2,1-0.2,1.2l0,0
	l0.1,0.2c0.5,0.8,1.3,1.8,2.1,2.4c0.6,0.4,0.9,0.6,1.2,0.6C26.6,47.9,27.1,47.6,27.8,46.7z M23.5,22.5c0-0.6,0.9-1.1,2.1-1.1
	c1.2,0,2.1,0.5,2.1,1.1c0,0.6-0.9,1.1-2.1,1.1C24.5,23.6,23.5,23.1,23.5,22.5z M41.1,18.8c0.1-0.1,0.2-0.4,0.3-0.6
	c0-0.1,0.1-0.2,0.1-0.3l0,0l-0.1,0c-0.1,0-0.3-0.1-0.5-0.1c-0.4-0.1-1-0.2-1.7-0.2c-1.3-0.1-3-0.2-4.7-0.2c-1.7,0-3.4,0-4.7,0.1
	c-0.7,0-1.2,0.1-1.7,0.2c-0.4,0.1-0.6,0.1-0.7,0.2l-0.1,0l-0.1,0.2c-0.1,0.2-0.1,0.5,0,0.7c0.1,0.4,0.5,0.8,0.9,1.3
	c0.9,0.9,2.2,1.7,3,2C35.2,23.9,39.2,22,41.1,18.8z M19.8,21.9c0.7-0.3,2-1.1,3-2c0.5-0.5,0.8-0.9,0.9-1.3c0.1-0.3,0.1-0.5,0-0.7
	l-0.1-0.2l-0.1,0c-0.1,0-0.3-0.1-0.7-0.2c-0.4-0.1-1-0.1-1.7-0.2c-1.3-0.1-3-0.1-4.7-0.1c-1.7,0-3.4,0.1-4.7,0.2
	c-0.7,0.1-1.2,0.1-1.7,0.2c-0.2,0-0.4,0.1-0.5,0.1l-0.1,0l0,0c0,0.1,0,0.2,0.1,0.3c0.1,0.2,0.2,0.5,0.3,0.6c0.2,0.4,0.5,0.8,0.8,1.2
	C12.8,22.4,16.3,23.6,19.8,21.9z M26.7,17c0.1-0.1,0.1-0.1,0.2-0.1c0.3-0.2,0.7-0.3,1.1-0.3c0.5-0.1,1.1-0.1,1.8-0.2
	c1.4-0.1,3.1-0.1,4.8-0.1c1.7,0,3.4,0.1,4.8,0.2c0.3,0,0.5,0.1,0.8,0.1c-0.2-2-0.7-4.3-1.1-5.9c-0.4-2.3-0.8-4.7-1.2-6.5
	c-0.5-2-1-3-1.4-3.1c-0.5-0.2-1.5,0.7-2.8,2.5c-1,1.5-2,3.2-2.1,3.5l0,0l0,0c-0.1,0.2-0.3,0.2-0.5,0.2c-2.9-0.9-9-0.9-11.6-0.1
	C19,7.2,18.7,7,18.6,6.7c0-0.3-0.8-1.7-1.7-3.2c-0.5-0.7-1-1.3-1.4-1.8c-0.4-0.4-0.6-0.5-0.8-0.6l-0.1,0l-0.1,0
	c-0.6,0-1.2,0.8-1.6,2.6c-0.4,1.6-0.6,3.7-0.8,5.3c-0.2,1.2-0.3,4-0.8,7.5c0.1,0,0.2,0,0.3,0c1.4-0.1,3.1-0.2,4.8-0.2
	c1.7,0,3.4,0,4.8,0.1c0.7,0,1.3,0.1,1.8,0.2c0.4,0.1,0.9,0.2,1.1,0.3c0,0,0.1,0.1,0.2,0.1c0.1,0.2,0.2,0.3,0.3,0.5h1.9
	C26.5,17.3,26.6,17.2,26.7,17z"/>
</svg>
